<svg width="824" height="750" viewBox="0 0 824 750" fill="none" xmlns="http://www.w3.org/2000/svg">
<mask id="mask0_37_2" style="mask-type:alpha" maskUnits="userSpaceOnUse" x="0" y="0" width="824" height="750">
<path d="M0.624268 0.437378H823.707V749.563H0.624268V0.437378Z" fill="white"/>
</mask>
<g mask="url(#mask0_37_2)">
<path d="M823.707 611.066L823.508 610.867C819.933 604.511 735.518 453.357 722.609 447.201C721.417 446.603 717.842 446.207 712.48 445.809C719.43 441.44 724.197 433.694 724.197 424.755V25.5201C724.197 11.8142 713.075 0.691895 699.371 0.691895H158.528C144.824 0.691895 133.7 11.8142 133.7 25.5201V424.558C133.7 424.755 133.7 425.153 133.7 425.352C118.605 428.728 104.107 432.502 90.799 436.673C32.6039 455.343 0.624268 480.171 0.624268 506.59C0.624268 527.047 19.6922 546.314 55.0476 562.602C41.9389 583.656 30.2194 604.312 29.4253 611.066C28.233 621.792 32.4049 670.256 35.1855 699.851C32.2058 697.467 31.0136 694.489 30.6175 692.304L29.6243 692.503L28.6311 692.7C28.6311 692.899 28.6311 692.899 28.6311 693.098H28.432L30.2194 724.679H30.0204C32.0068 733.22 35.1855 739.575 45.1155 744.939C50.6766 747.919 63.3893 749.308 73.3193 749.308C79.4776 749.308 84.6407 748.713 86.428 747.72C87.2242 747.123 87.4212 746.528 87.4212 746.13C87.4212 745.535 87.2242 744.342 86.8261 742.754C90.998 742.754 96.1611 742.953 102.715 742.953C121.385 743.152 148.994 743.349 184.546 743.349C206.198 743.349 231.223 743.349 259.031 743.349C307.891 743.349 366.086 743.349 432.822 743.152C568.678 742.754 705.925 742.356 764.518 742.159C764.12 744.145 763.921 745.535 763.724 746.13C763.724 746.528 763.724 747.123 764.518 747.72C766.107 748.713 771.272 749.308 777.428 749.308C787.358 749.308 800.071 747.919 805.632 744.939C815.564 739.774 818.94 733.021 820.926 724.679H820.528L822.118 694.091C822.118 693.892 822.315 693.693 822.315 693.297C822.315 693.098 822.315 692.899 822.514 692.899L821.521 692.503L820.528 692.104C820.528 692.304 820.331 692.503 820.331 692.7C820.331 692.899 820.132 693.098 820.132 693.496V693.892C819.933 694.686 819.535 695.679 818.741 696.871C819.933 671.448 823.508 612.059 823.508 611.265L823.707 611.066ZM445.733 188.193C445.733 188.591 445.733 189.186 445.733 189.584C445.733 188.989 445.733 188.591 445.733 188.193Z" fill="#64533A"/>
</g>
<path d="M730.156 546.909C731.745 546.909 733.136 546.71 734.525 546.71L732.143 572.731C731.15 572.731 729.957 572.731 728.767 572.731C726.184 572.731 724 572.532 721.616 572.335C722.211 566.574 724 551.875 724.595 546.513C726.383 546.71 728.17 546.909 730.156 546.909ZM670.371 517.911L692.023 513.144C692.22 511.952 692.023 510.561 691.226 509.37L657.262 451.968C655.873 450.974 654.285 450.18 652.694 449.386C652.099 448.988 651.502 448.789 650.907 448.393C650.312 447.995 649.715 447.796 649.12 447.597C649.12 447.597 648.921 447.597 648.921 447.4C648.325 447.201 647.927 446.802 647.332 446.603C647.531 446.802 647.73 447.201 647.73 447.4C647.73 447.4 647.73 447.4 647.73 447.597C647.927 447.796 648.126 448.194 648.325 448.393C648.525 448.789 648.722 448.988 648.921 449.386C656.269 460.707 664.016 473.022 665.606 475.205C668.584 479.377 688.249 509.567 681.495 511.554C674.742 513.54 641.572 513.54 639.387 515.131C637.4 516.719 661.832 519.898 670.371 517.911ZM653.887 500.631C662.228 499.438 641.771 500.432 632.633 497.253C623.497 494.076 627.669 482.556 627.47 481.959C625.882 475.205 619.923 488.513 626.875 497.452C633.825 506.391 645.545 501.823 653.887 500.631ZM612.176 409.065L620.518 403.7L620.321 401.714C611.78 399.133 598.273 395.359 595.692 396.153C588.938 398.139 581.391 400.524 580.596 401.318C579.999 402.112 579.404 402.906 578.809 403.7C584.965 405.49 591.719 407.474 596.882 409.065C602.841 410.852 607.013 412.241 607.013 412.241L612.176 409.065ZM571.262 434.488L572.056 433.893L573.246 432.9L574.438 431.906L574.637 431.707L597.28 421.775L599.067 420.981L599.465 420.782L600.459 420.386L597.28 419.791L592.115 418.798L581.192 416.811L577.02 416.015L572.452 416.811V422.768L570.465 428.133L570.069 429.325L569.87 429.92L569.671 430.119L564.508 433.495L562.918 434.488L562.323 434.886L559.741 436.673L552.194 441.44L550.802 442.434L549.61 443.228L546.829 445.015L546.632 445.214L545.836 445.809L545.042 446.207L544.845 446.406L543.454 447.201L542.859 447.597L542.66 447.796L542.261 447.995L541.268 448.59L539.68 449.583L528.757 456.735L527.166 457.728L513.064 466.864L499.757 475.603L498.168 476.597L494.99 478.583L476.121 483.945L470.759 482.556L470.164 484.938C468.177 485.932 466.587 487.719 468.772 491.692C471.354 496.658 478.107 502.02 483.471 505.597L500.949 496.857L505.121 497.85L493.401 507.979C493.401 507.979 493.401 508.773 493.799 509.37L500.155 508.773L508.696 504.404L511.078 503.212L519.619 498.843C519.42 497.651 519.42 496.26 519.223 495.069L511.277 493.479L509.092 493.083L506.114 492.486L498.963 493.877C498.963 493.877 482.874 499.239 477.313 495.665C474.134 493.678 473.141 491.891 472.944 490.699C472.745 489.904 472.944 489.506 472.944 489.506C473.937 489.904 475.128 489.904 476.32 490.103C477.711 490.103 479.1 489.904 480.293 489.506C483.073 488.513 489.827 487.323 494.395 486.33H493.799L496.777 485.732L500.75 483.151C501.347 482.357 501.544 481.563 502.141 480.769C502.34 480.171 502.736 479.775 503.134 479.178L503.333 478.979C503.929 478.384 509.888 474.212 518.429 468.85C522.399 466.268 527.166 463.289 531.933 460.309C532.531 459.911 533.126 459.515 533.522 459.316C538.092 456.336 542.859 453.357 547.427 450.377C547.823 450.18 548.022 449.981 548.42 449.782C549.015 449.384 549.413 449.187 550.008 448.789C550.008 448.789 550.008 448.789 550.207 448.789C550.406 448.59 550.603 448.59 550.802 448.393C551.001 448.393 551.001 448.194 551.2 448.194C551.2 448.194 551.399 447.995 551.596 447.995C551.596 447.995 551.795 447.995 551.795 447.796C551.995 447.597 552.194 447.597 552.391 447.4C552.59 447.4 552.59 447.201 552.59 447.201C552.789 447.001 553.187 446.802 553.384 446.802C553.583 446.603 553.981 446.406 554.18 446.207C554.775 445.809 555.37 445.61 555.768 445.214C561.925 441.44 567.09 438.063 570.268 436.076H570.069L571.062 435.282L571.262 434.488ZM740.285 543.534C740.684 543.334 741.279 543.334 741.677 543.135C745.451 541.943 748.231 539.959 749.423 537.972C749.62 537.574 749.819 537.375 749.819 536.979C750.019 536.581 750.019 536.382 750.019 535.986C750.019 535.787 750.019 535.588 750.019 535.389C750.019 530.226 740.883 525.855 729.957 525.855C719.828 525.855 711.088 529.629 710.095 534.396C710.095 534.794 709.898 534.993 709.898 535.389C709.898 535.787 709.898 535.986 710.095 536.382C710.692 538.567 712.679 540.355 715.459 541.943C716.453 542.54 717.643 542.936 718.835 543.334C720.622 543.93 722.808 544.328 724.993 544.726C726.582 544.923 728.369 545.122 729.957 545.122C731.548 545.122 732.937 544.923 734.328 544.923C736.711 544.328 738.498 544.129 740.285 543.534ZM635.217 450.775C629.058 450.775 623.696 453.556 623.696 456.735C623.696 457.529 623.895 458.124 624.491 458.92C624.69 459.117 624.889 459.515 625.086 459.714C625.285 459.911 625.683 460.11 625.882 460.309C628.065 461.898 631.443 462.694 635.217 462.694C638.991 462.694 642.366 461.701 644.552 460.309C644.751 460.11 645.147 459.911 645.346 459.714C645.545 459.515 645.744 459.316 645.941 458.92C646.339 458.323 646.737 457.529 646.737 456.735C646.737 453.556 641.373 450.775 635.217 450.775ZM633.626 481.959C633.626 482.556 633.825 483.35 634.224 483.945C634.423 484.144 634.62 484.542 634.819 484.739C635.018 484.938 635.217 485.137 635.613 485.336C637.798 486.925 641.174 487.918 644.948 487.918C648.722 487.918 652.298 486.925 654.285 485.336C654.482 485.137 654.88 484.938 655.079 484.739C655.276 484.542 655.475 484.144 655.674 483.945C656.072 483.35 656.269 482.755 656.269 481.959C656.269 478.782 650.907 476.002 644.751 476.002C638.991 476.002 633.626 478.782 633.626 481.959ZM700.364 448.59C698.577 448.59 696.987 448.988 695.796 449.384C694.206 449.981 693.412 450.974 693.412 451.968C693.412 452.167 693.412 452.364 693.611 452.563C693.81 452.762 694.007 453.16 694.206 453.357C694.405 453.556 694.803 453.755 695 453.954C696.192 454.748 698.179 455.343 700.364 455.343C702.548 455.343 704.534 454.748 705.726 453.954C706.124 453.755 706.321 453.556 706.52 453.357C706.72 453.16 706.919 452.762 707.116 452.563C707.315 452.364 707.315 452.167 707.315 451.968C707.315 450.775 705.925 449.782 703.74 448.988C702.747 448.789 701.554 448.59 700.364 448.59ZM780.209 600.14C781.401 600.936 783.188 601.333 785.374 601.333C787.557 601.333 789.345 600.936 790.537 600.14C790.935 599.943 791.132 599.744 791.331 599.545C791.53 599.346 791.729 598.95 791.928 598.751C792.125 598.552 792.125 598.156 792.125 597.957C792.125 596.366 789.345 594.579 785.175 594.579C781.003 594.579 778.222 596.366 778.222 597.957C778.222 598.156 778.421 598.552 778.421 598.751C778.62 598.95 778.819 599.346 779.016 599.545C779.614 599.744 779.811 599.943 780.209 600.14ZM56.0408 595.771C56.0408 595.97 56.2378 596.366 56.2378 596.566C56.4369 596.765 56.6359 597.163 56.835 597.36C57.0341 597.559 57.4301 597.758 57.6292 597.957C58.8214 598.751 60.6088 599.147 62.7943 599.147C64.9777 599.147 66.765 598.751 67.9573 597.957C68.3554 597.758 68.5524 597.559 68.7514 597.36C68.9505 597.163 69.1496 596.765 69.3486 596.566C69.5456 596.366 69.5456 595.97 69.5456 595.771C69.5456 594.183 66.765 592.396 62.5952 592.396C58.4233 592.396 56.0408 594.183 56.0408 595.771ZM721.815 448.988C720.821 448.59 717.842 447.995 713.473 447.796L802.256 611.066L349.799 609.873C349.204 609.873 348.409 609.873 347.812 610.072L237.777 609.873C237.182 609.873 236.388 609.873 235.791 609.674L44.3214 608.88H44.1223L65.7718 567.368C62.5952 566.176 59.8146 564.787 56.835 563.595C43.7263 584.649 32.0068 604.907 31.4117 611.464C31.2127 613.45 31.2127 617.025 31.4117 621.394C33.1991 621.991 35.1855 622.387 37.3689 622.984C79.0796 631.525 799.277 625.167 810.797 621.792C813.775 620.998 817.548 617.819 821.521 614.045C821.521 613.052 821.72 612.258 821.72 611.661C791.331 557.237 731.745 453.556 721.815 448.988ZM709.301 447.4C709.102 447.4 708.905 447.597 708.706 447.597H712.876C711.883 447.597 710.692 447.4 709.301 447.4ZM291.008 633.907C303.918 654.962 331.923 698.064 354.566 732.822C385.948 732.625 418.521 732.227 450.501 732.028L383.763 633.907H291.008ZM394.091 633.907C411.57 658.934 442.754 706.405 459.437 732.028C472.546 731.829 485.655 731.829 498.566 731.632L432.623 633.907H394.091ZM140.851 423.961V35.45C140.851 22.5403 151.379 12.0131 164.288 12.0131H691.029C703.939 12.0131 714.466 22.5403 714.466 35.45V435.282C714.466 437.866 714.068 440.248 713.274 442.633C718.636 438.461 722.211 431.906 722.211 424.558V25.52C722.211 13.0064 711.883 2.67822 699.371 2.67822H158.528C146.014 2.67822 135.686 13.0064 135.686 25.52V424.558C135.686 424.755 135.686 424.755 135.686 424.954C137.474 424.558 139.064 424.359 140.851 423.961ZM445.734 187.996C445.734 187.598 445.734 187.2 445.734 186.803C445.734 186.206 445.734 185.611 445.931 185.016C445.931 185.611 445.734 186.206 445.734 186.803C445.734 187.2 445.734 187.598 445.734 187.996ZM476.718 204.084C476.519 205.871 475.924 207.659 474.333 209.048C475.924 207.659 476.519 205.871 476.718 204.084ZM461.225 187.003C461.822 180.446 458.245 180.05 452.883 179.851C457.849 180.05 461.822 180.446 461.225 187.003ZM461.225 195.74C461.026 197.727 460.63 198.72 460.63 201.899C460.63 199.912 461.026 197.727 461.225 195.74ZM604.628 381.852H265.386C249.298 381.852 236.189 368.743 236.189 352.655V109.14C236.189 93.052 249.298 79.9433 265.386 79.9433H604.628C620.717 79.9433 633.825 93.052 633.825 109.14V352.655C633.825 368.743 620.717 381.852 604.628 381.852ZM488.435 189.385C484.266 189.98 483.272 187.996 483.867 184.419C484.465 180.844 482.675 179.453 479.299 179.652C475.924 179.851 473.738 178.462 474.333 174.489C474.931 170.516 473.34 169.919 469.965 169.919C462.813 170.118 455.863 169.919 448.711 169.523C445.734 169.523 444.143 170.516 444.342 173.695C444.541 176.871 443.349 179.453 439.179 178.858C435.007 178.263 433.616 179.453 434.213 183.625C434.808 187.797 432.623 188.193 429.247 188.193C425.871 188.193 423.885 187.2 424.48 183.426C425.075 179.652 423.487 177.865 419.713 178.462C415.939 179.057 413.953 176.871 414.747 173.098C415.543 169.324 413.557 168.729 410.577 168.729C407.2 168.928 403.625 168.729 400.249 168.53H389.324C385.948 168.331 384.36 169.523 384.756 172.899C385.154 176.276 383.564 178.462 379.593 177.865C375.62 177.269 374.428 178.659 374.826 182.433C375.222 186.206 372.839 187.399 369.462 187.003C366.086 186.604 364.498 188.193 364.498 191.57C364.697 197.53 364.498 203.29 364.1 209.247C363.901 213.22 365.093 215.206 369.265 214.808C373.435 214.412 374.627 215.405 374.032 218.98C373.435 222.555 375.62 224.74 379.593 224.342C383.566 223.946 383.962 225.335 383.566 228.315C383.168 231.295 384.955 234.075 389.127 233.679C393.297 233.281 393.894 234.869 393.496 238.247C393.098 241.623 394.489 243.808 398.263 243.213C402.036 242.616 403.625 244.206 403.03 247.98C402.433 251.754 403.824 253.143 407.598 252.747C411.371 252.349 413.358 253.74 412.763 257.91C412.166 262.082 413.756 262.677 416.933 262.281C420.111 261.883 423.288 263.471 422.693 268.041C422.098 272.609 425.274 271.616 427.659 271.815C430.041 272.012 432.822 271.815 432.426 268.238C432.028 264.664 434.213 262.082 438.582 262.677C442.953 263.274 442.953 262.082 442.555 259.102C442.157 256.123 444.342 252.944 448.711 253.541C453.082 254.136 453.082 252.944 452.883 249.967C452.684 246.987 454.075 243.808 458.245 244.602C462.417 245.397 463.211 244.007 462.815 240.63C462.417 237.254 464.204 234.672 468.376 235.467C472.546 236.261 473.34 235.268 473.143 231.693C472.944 228.116 474.732 225.734 478.901 226.528C483.073 227.322 483.272 225.335 483.073 222.358C482.874 219.378 484.662 216.598 488.435 217.193C492.209 217.788 493.401 215.801 493.202 212.227C493.202 206.467 493.401 200.507 493.6 194.747C493.799 188.989 492.607 188.79 488.435 189.385ZM476.718 203.487C476.718 201.7 476.32 199.912 475.526 198.523C472.546 192.166 466.191 195.74 461.225 195.344H461.026V195.74H461.225C466.191 196.138 472.546 192.564 475.526 198.919C476.32 200.31 476.718 201.899 476.718 203.487Z" fill="#CEE2DA"/>
<path d="M752.204 729.645C755.381 729.842 760.942 728.851 768.093 727.062C766.901 732.028 765.908 736.795 765.114 740.369C717.247 740.568 615.95 740.967 505.318 741.166C492.209 741.166 479.1 741.166 465.793 741.363C462.813 741.363 460.032 741.363 457.055 741.363C424.679 741.363 392.104 741.562 360.326 741.562C236.784 741.761 125.159 741.761 86.6271 740.967C86.032 737.987 85.0388 734.014 84.0456 729.842C91.195 732.426 98.3465 734.014 105.297 734.213C122.181 734.611 231.024 734.014 354.765 732.822C386.147 732.625 418.72 732.227 450.697 732.028C453.677 732.028 456.657 732.028 459.636 732.028C472.745 731.829 485.854 731.829 498.763 731.632C629.853 730.439 744.855 729.446 752.204 729.645ZM237.777 609.477L347.812 609.674C348.409 609.674 349.203 609.674 349.799 609.477C445.335 603.914 524.386 585.244 563.714 560.416C552.193 565.977 538.886 571.341 523.592 576.108C465.793 594.579 388.928 604.71 307.097 604.71C225.264 604.71 148.399 594.579 90.5999 576.108C81.6631 573.328 73.3193 570.348 65.7718 567.169L65.1766 568.362C107.482 588.025 166.671 603.717 235.592 609.278C236.386 609.477 237.182 609.477 237.777 609.477ZM558.947 434.488L567.884 428.728L570.268 422.372V421.775H462.813C481.682 425.352 499.56 429.522 516.044 434.488H558.947ZM184.944 416.413C180.576 412.44 177.795 406.879 177.795 400.524V61.2713C177.795 49.554 187.329 40.02 199.046 40.02H658.654C670.371 40.02 679.905 49.554 679.905 61.2713V400.524C679.905 412.241 670.371 421.775 658.654 421.775H623.696L623.895 425.748L615.156 432.302H619.128C625.285 432.302 631.64 433.099 637.004 434.488H678.516C690.631 434.488 700.561 424.558 700.561 412.44V43.5947C700.561 31.4792 690.631 21.5471 678.516 21.5471H178.985C166.87 21.5471 156.94 31.4792 156.94 43.5947V412.44C156.94 415.221 157.535 418.001 158.528 420.585C167.069 418.995 176.008 417.605 184.944 416.413ZM634.223 409.065H622.902L623.497 419.791H658.654C669.181 419.791 677.918 411.051 677.918 400.524V61.2713C677.918 50.7442 669.181 42.0064 658.654 42.0064H199.046C188.519 42.0064 179.781 50.7442 179.781 61.2713V400.524C179.781 406.879 182.958 412.44 187.526 416.015C212.752 412.639 239.565 410.257 266.974 409.065H235.592C217.716 409.065 203.218 394.565 203.218 376.689V94.8393C203.218 76.9636 217.716 62.4636 235.592 62.4636H634.223C652.099 62.4636 666.597 76.9636 666.597 94.8393V376.689C666.597 394.565 652.099 409.065 634.223 409.065ZM570.268 419.791V412.838L570.465 412.639C571.261 411.447 572.056 410.454 572.651 409.264H347.416C384.161 410.852 419.514 414.427 451.89 419.988L570.268 419.791ZM679.31 545.717C684.475 544.527 688.05 542.54 689.439 539.959L689.638 539.362H689.837C690.036 537.574 690.036 535.389 690.233 533.205L679.111 533.8C678.715 534 679.111 540.355 679.31 545.717ZM691.425 520.493C687.851 522.678 681.891 524.067 674.742 524.267L626.676 524.862C620.916 524.862 615.156 524.267 609.793 522.875C606.615 529.233 601.45 535.389 594.499 541.348C601.253 544.923 611.183 547.307 620.916 547.307C621.115 547.307 621.312 547.307 621.71 547.307L657.859 546.909C658.654 542.341 658.853 537.574 657.66 535.389C655.079 530.622 620.122 534.199 612.97 530.821C605.821 527.445 649.319 529.828 659.249 530.821C665.604 531.416 680.898 528.438 691.029 526.054C691.226 524.067 691.226 522.28 691.425 520.493ZM602.841 480.171C610.389 476.199 618.929 470.042 612.97 463.884C608.006 458.92 608.8 453.556 612.375 449.384C612.574 448.988 612.97 448.789 613.368 448.393C613.766 447.995 613.963 447.796 614.361 447.597C614.361 447.597 614.361 447.597 614.56 447.4C614.956 447.001 615.554 446.603 616.149 446.207C616.744 445.809 617.142 445.61 617.737 445.214C618.334 444.816 618.929 444.42 619.723 444.221C622.305 443.029 625.086 442.234 627.868 442.035C631.839 441.639 636.606 442.434 641.572 444.221C642.366 444.617 643.359 444.816 644.154 445.214C644.948 445.61 645.744 445.809 646.538 446.207C646.934 446.406 647.332 446.603 647.531 446.603C648.126 446.802 648.524 447.001 649.12 447.4C649.12 447.4 649.319 447.4 649.319 447.597C649.914 447.796 650.511 448.194 651.106 448.393C651.701 448.789 652.298 448.988 652.893 449.384C654.482 450.18 655.873 451.173 657.461 451.968L655.873 449.384L655.276 448.393L654.681 447.597V447.4L654.086 446.207C653.887 445.809 653.687 445.61 653.488 445.214C653.291 444.816 652.893 444.617 652.694 444.221C650.511 441.836 646.737 439.653 642.366 438.063C637.599 436.275 631.839 434.886 625.882 434.488C624.094 434.289 622.305 434.289 620.518 434.289C620.321 434.289 619.923 434.289 619.723 434.289H612.97L612.773 434.488L608.999 437.268L596.882 434.488H595.094L583.972 438.461L574.836 444.617L573.246 445.61L571.857 446.603L570.664 447.4L570.465 447.597L569.076 448.391L567.685 449.384L563.515 452.167C580.992 460.904 594.499 470.241 602.841 480.171ZM250.687 498.246C262.406 505.993 287.631 511.554 317.027 511.554C357.346 511.554 390.12 501.425 390.12 488.712C390.12 478.979 370.853 470.836 343.841 467.461C339.271 466.864 334.703 466.468 329.739 466.268C325.568 466.069 321.396 465.87 317.027 465.87C286.438 465.87 260.42 471.631 249.497 479.972C245.92 482.556 243.936 485.535 243.936 488.712C243.936 492.09 246.318 495.466 250.687 498.246ZM485.06 528.239L483.867 522.678L454.67 533.8C455.068 536.185 455.464 538.767 456.062 541.149C456.062 541.149 456.062 541.149 456.062 541.348L469.964 537.773L495.189 531.02V523.273L485.259 528.834L485.06 528.239ZM496.182 520.692L502.34 517.314L505.517 515.527C511.872 514.533 518.825 513.341 520.216 512.746C520.216 511.952 520.216 509.966 520.017 507.384C519.818 504.999 519.619 502.02 519.223 499.04L510.682 503.411L508.297 504.603L499.757 508.972L498.168 509.766C495.189 511.357 493.996 510.364 493.401 509.37C493.003 508.574 493.003 507.979 493.003 507.979L504.723 497.85L500.551 496.857L483.073 505.597L454.869 519.5L441.562 507.979L430.439 517.712L451.89 532.807L456.458 531.02L485.259 520.095L486.648 526.054L494.195 521.882L496.182 520.692ZM572.253 413.234V416.612L576.823 415.818L580.992 416.612L582.384 415.818C581.191 415.619 575.63 414.228 572.253 413.234ZM540.474 464.877L542.062 463.884L554.775 455.343L555.569 454.748L556.363 454.151L556.761 453.954L559.144 452.364L559.94 451.768L560.931 451.173L563.515 449.384L564.904 448.393L566.295 447.597L566.494 447.4L567.685 446.603L569.076 445.61L570.664 444.617L577.219 440.248L577.418 440.049L582.78 436.474L588.54 434.488L588.938 434.289L594.3 432.501L595.293 432.105L596.685 432.501L600.855 433.495L605.026 434.488H605.225L608.203 435.083L609.196 434.488H609.395L609.793 434.092C609.793 433.893 609.793 433.694 609.793 433.495C609.793 433.099 609.793 432.9 609.793 432.501C609.793 428.927 609.594 425.153 609.395 421.775C609.395 421.578 609.395 421.18 609.395 420.981V420.782C609.395 420.386 609.395 420.187 609.395 419.791C609.196 417.207 609.196 415.42 609.196 415.42H597.081L592.115 418.798L597.28 419.791L600.458 420.386L599.465 420.782L599.067 420.981L597.28 421.775L574.637 431.707L574.438 431.906L573.246 432.9L572.056 433.893L571.261 434.488L570.863 434.886L569.87 435.68H570.069C566.891 437.667 561.528 441.042 555.569 444.816C554.974 445.214 554.576 445.413 553.981 445.809C553.782 446.008 553.386 446.207 553.187 446.406C552.988 446.603 552.59 446.802 552.393 446.802C552.193 446.802 552.193 447.001 552.193 447.001C551.994 447.201 551.795 447.201 551.596 447.4C551.596 447.4 551.399 447.4 551.399 447.597C551.399 447.597 551.2 447.796 551.001 447.796C550.802 447.796 550.802 447.995 550.603 447.995C550.406 448.194 550.207 448.194 550.008 448.393C550.008 448.393 550.008 448.393 549.809 448.393C549.214 448.789 548.816 448.988 548.221 449.386C547.823 449.583 547.626 449.782 547.227 449.981C542.66 452.762 537.893 455.94 533.325 458.92C532.727 459.316 532.132 459.714 531.736 459.911C526.969 462.891 522.399 465.87 518.229 468.454C509.888 473.816 503.729 477.988 503.134 478.583L502.935 478.782C502.537 479.377 502.34 479.775 501.942 480.37C501.546 481.165 501.148 481.959 500.553 482.755C499.956 483.549 499.361 484.144 498.168 484.739C497.374 485.137 495.786 485.535 493.998 486.131C489.428 487.323 482.677 488.316 479.894 489.309C478.505 489.705 477.313 489.904 475.924 489.904C474.731 489.904 473.738 489.705 472.546 489.309C472.546 489.309 472.347 489.705 472.546 490.499C472.745 491.692 473.738 493.282 476.917 495.466C482.478 499.04 498.566 493.678 498.566 493.678L505.716 492.289L500.75 491.296L506.311 487.522L506.51 487.323L508.1 486.33L528.954 472.425L540.474 464.877ZM711.883 572.532C704.335 570.348 699.371 566.97 699.371 562.998C699.371 562.004 699.57 561.011 700.165 560.217L702.747 552.074C697.98 555.054 695.199 558.629 695.199 562.801C695.199 572.135 710.294 579.683 728.767 579.683C747.238 579.683 762.333 572.135 762.333 562.801C762.333 559.027 759.948 555.649 755.978 552.868L757.964 561.011C758.161 561.608 758.36 562.203 758.36 562.801C758.36 565.382 756.175 567.964 752.6 569.751C747.833 572.335 740.484 574.122 731.745 574.518C730.751 574.518 729.561 574.518 728.568 574.518C727.177 574.518 725.787 574.518 724.396 574.321C723.403 574.321 722.41 574.122 721.416 574.122C718.041 573.923 714.665 573.525 711.883 572.532C711.883 572.532 711.883 572.731 711.883 572.532ZM712.082 570.545C712.679 570.744 713.473 570.943 714.068 571.142L716.65 547.108L716.849 544.726C716.253 544.527 715.855 544.328 715.26 544.129C712.281 542.739 710.095 540.95 708.905 538.966L705.131 550.882L701.753 561.409C701.357 561.807 701.158 562.601 701.158 563.197C701.357 565.778 705.328 568.758 712.082 570.545ZM741.279 571.737C745.847 570.943 749.62 569.554 752.204 568.163C754.984 566.574 756.374 564.787 756.374 563.197C756.374 562.801 756.175 562.402 755.978 562.004V561.807L753.593 551.676L750.813 539.76C749.224 541.943 746.444 543.733 742.869 545.122C742.073 545.321 741.279 545.717 740.484 545.916V547.307L741.279 571.737ZM646.737 463.687C646.737 462.891 646.538 462.296 645.941 461.501C643.558 463.289 639.586 464.678 635.217 464.678C630.846 464.678 626.875 463.488 624.49 461.501C624.094 462.097 623.696 462.891 623.696 463.687C623.696 466.864 629.058 469.644 635.217 469.644C641.373 469.644 646.737 466.864 646.737 463.687ZM645.147 494.671C651.305 494.671 656.667 491.891 656.667 488.712C656.667 488.117 656.468 487.323 656.072 486.726C653.687 488.712 649.715 489.904 645.147 489.904C640.579 489.904 636.805 488.712 634.223 486.726C633.825 487.323 633.626 487.918 633.626 488.712C633.626 491.891 638.99 494.671 645.147 494.671ZM693.611 455.542C693.412 455.741 693.412 455.94 693.412 456.137C693.412 457.728 696.192 459.515 700.364 459.515C704.534 459.515 707.315 457.728 707.315 456.137C707.315 455.94 707.315 455.741 707.116 455.542C705.527 456.734 703.145 457.33 700.364 457.33C697.584 457.33 695.199 456.535 693.611 455.542ZM792.125 601.532C790.537 602.724 788.154 603.319 785.374 603.319C782.593 603.319 780.408 602.525 778.62 601.532C778.421 601.731 778.421 602.127 778.421 602.326C778.421 603.914 781.202 605.703 785.374 605.703C789.544 605.703 792.324 603.914 792.324 602.326C792.324 602.127 792.125 601.731 792.125 601.532ZM705.527 519.5C705.527 521.884 709.102 523.868 713.473 523.868C717.842 523.868 721.416 521.884 721.416 519.5C721.416 517.115 717.842 515.131 713.473 515.131C709.102 515.131 705.527 517.115 705.527 519.5ZM751.211 591.998C746.84 591.998 743.265 593.984 743.265 596.366C743.265 598.751 746.84 600.737 751.211 600.737C755.58 600.737 759.154 598.751 759.154 596.366C759.154 593.984 755.58 591.998 751.211 591.998ZM62.9912 601.133C60.2106 601.133 58.0272 600.339 56.2378 599.346C56.0408 599.545 56.0408 599.943 56.0408 600.14C56.0408 601.731 58.8213 603.518 62.9912 603.518C67.1631 603.518 69.9436 601.731 69.9436 600.14C69.9436 599.943 69.7446 599.545 69.7446 599.346C67.9572 600.339 65.7718 601.133 62.9912 601.133ZM493.6 194.747C493.401 200.507 493.202 206.467 493.202 212.227C493.401 215.801 492.209 217.788 488.435 217.193C484.661 216.598 482.874 219.378 483.073 222.358C483.272 225.335 483.073 227.322 478.901 226.528C474.731 225.734 472.944 228.116 473.143 231.693C473.34 235.267 472.546 236.261 468.376 235.467C464.204 234.672 462.417 237.254 462.813 240.63C463.211 244.007 462.417 245.397 458.245 244.602C454.075 243.808 452.684 246.987 452.883 249.967C453.082 252.944 453.082 254.136 448.711 253.541C444.342 252.944 442.157 256.123 442.555 259.102C442.953 262.082 442.953 263.274 438.582 262.677C434.213 262.082 432.028 264.664 432.426 268.238C432.822 271.815 430.041 272.012 427.659 271.815C425.274 271.616 422.098 272.609 422.693 268.041C423.288 263.471 420.111 261.883 416.932 262.281C413.754 262.677 412.165 262.082 412.763 257.91C413.358 253.74 411.371 252.349 407.598 252.747C403.824 253.143 402.432 251.754 403.03 247.98C403.625 244.206 402.036 242.616 398.263 243.213C394.489 243.808 393.098 241.623 393.496 238.247C393.894 234.869 393.297 233.281 389.127 233.679C384.955 234.075 383.167 231.295 383.564 228.315C383.962 225.335 383.564 223.946 379.593 224.342C375.62 224.74 373.434 222.555 374.032 218.98C374.627 215.405 373.434 214.412 369.265 214.808C365.093 215.206 363.9 213.22 364.1 209.247C364.498 203.29 364.695 197.53 364.498 191.57C364.498 188.193 366.086 186.604 369.462 187.002C372.839 187.399 375.222 186.206 374.826 182.433C374.428 178.659 375.62 177.269 379.593 177.865C383.564 178.462 385.154 176.276 384.756 172.899C384.36 169.523 385.948 168.331 389.324 168.53H400.249C403.625 168.729 407.199 168.928 410.577 168.729C413.557 168.729 415.543 169.324 414.747 173.098C413.953 176.871 415.939 179.057 419.713 178.462C423.487 177.865 425.075 179.652 424.48 183.426C423.885 187.199 425.871 188.193 429.247 188.193C432.623 188.193 434.808 187.797 434.213 183.625C433.616 179.453 435.007 178.263 439.179 178.858C443.349 179.453 444.541 176.871 444.342 173.695C444.143 170.516 445.733 169.523 448.711 169.523C455.863 169.919 462.813 170.118 469.964 169.919C473.34 169.919 474.93 170.516 474.333 174.489C473.738 178.462 475.924 179.851 479.299 179.652C482.675 179.453 484.464 180.844 483.867 184.419C483.272 187.996 484.265 189.98 488.435 189.385C492.607 188.79 493.799 188.989 493.6 194.747ZM476.718 204.084C476.718 203.885 476.718 203.686 476.718 203.686C476.718 201.899 476.32 200.111 475.526 198.72C472.546 192.365 466.191 195.939 461.225 195.543H461.026C461.026 194.152 461.026 192.763 461.026 191.371C461.026 189.98 461.225 188.591 461.225 187.199C461.822 180.645 458.245 180.249 452.883 180.05C451.492 180.05 450.5 180.05 449.507 180.249C448.514 180.446 447.917 180.844 447.322 181.439C446.528 182.236 446.13 183.426 445.733 185.213C445.733 185.81 445.534 186.405 445.534 187.002C445.335 190.378 445.93 192.564 446.924 193.756C447.521 194.55 448.315 194.946 449.109 195.344C449.903 195.543 450.697 195.74 451.492 195.74C452.288 195.74 453.082 195.74 454.075 195.543C454.869 195.543 455.863 195.344 456.657 195.344C457.055 195.344 457.451 195.344 457.849 195.344C458.842 195.344 459.835 195.344 460.829 195.74V196.138H461.026C460.829 198.125 460.43 199.118 460.43 202.297C460.43 204.281 459.039 209.446 463.609 210.439C464.204 210.638 464.602 210.638 465.197 210.837C468.971 211.632 471.553 212.028 474.134 209.446C475.924 207.659 476.519 205.871 476.718 204.084Z" fill="#637BD6"/>
<path d="M741.279 571.737C738.498 572.335 735.518 572.532 732.143 572.731L734.525 546.71C735.321 546.71 735.917 546.513 736.711 546.513C737.903 546.314 739.292 546.115 740.484 545.717V547.108L741.279 571.737ZM691.425 520.493C687.851 522.678 681.891 524.067 674.742 524.267L626.676 524.862C620.916 524.862 615.156 524.267 609.793 522.875C612.574 517.513 613.963 512.151 613.963 506.59C613.963 497.452 610.19 488.712 602.841 480.171C610.389 476.199 618.929 470.042 612.97 463.884C608.006 458.92 608.8 453.556 612.375 449.384C612.574 448.988 612.97 448.789 613.368 448.393C613.764 447.995 613.963 447.796 614.361 447.597C614.361 447.597 614.361 447.597 614.56 447.4C614.956 447.002 615.554 446.603 616.149 446.207C616.744 445.809 617.142 445.61 617.737 445.214C618.334 444.816 618.929 444.42 619.723 444.221C622.305 443.029 625.086 442.235 627.868 442.035C631.839 441.639 636.606 442.434 641.572 444.221C642.366 444.617 643.359 444.816 644.154 445.214C644.948 445.61 645.744 445.809 646.538 446.207C646.934 446.406 647.332 446.603 647.531 446.603C647.728 446.802 647.927 447.201 647.927 447.4C647.927 447.4 647.927 447.4 647.927 447.597C648.126 447.796 648.325 448.194 648.524 448.393C648.721 448.789 648.921 448.988 649.12 449.384C656.468 460.707 664.215 473.022 665.803 475.205C668.783 479.377 688.446 509.567 681.692 511.554C674.941 513.54 641.771 513.54 639.586 515.131C637.4 516.719 661.83 519.898 670.371 517.911L692.02 513.144C692.02 513.341 692.02 513.54 691.823 513.739V513.938C691.823 514.334 691.624 516.918 691.425 520.493ZM645.147 474.015C637.599 474.015 631.642 477.59 631.642 481.959C631.642 483.151 632.038 484.343 632.832 485.336C632.038 486.33 631.642 487.522 631.642 488.712C631.642 493.083 637.599 496.658 645.147 496.658C652.694 496.658 658.654 493.083 658.654 488.712C658.654 487.522 658.255 486.33 657.461 485.336C658.255 484.343 658.654 483.151 658.654 481.959C658.654 477.59 652.694 474.015 645.147 474.015ZM635.217 471.631C642.764 471.631 648.721 468.056 648.721 463.687C648.721 462.495 648.325 461.302 647.332 460.11C648.126 459.117 648.721 457.927 648.721 456.535C648.721 453.16 645.545 450.576 640.778 449.187C639.19 448.789 637.203 448.59 635.217 448.59C633.23 448.59 631.443 448.789 629.656 449.187C624.889 450.377 621.71 453.16 621.71 456.535C621.71 457.728 622.108 458.92 623.101 460.11C622.305 461.103 621.71 462.296 621.71 463.687C621.71 468.056 627.669 471.631 635.217 471.631ZM653.887 500.631C662.228 499.438 641.771 500.432 632.633 497.253C623.497 494.076 627.669 482.556 627.47 481.959C625.882 475.205 619.923 488.513 626.875 497.452C633.825 506.391 645.545 501.823 653.887 500.631ZM361.717 461.502C394.885 466.468 417.727 476.995 417.727 488.911C417.727 505.794 372.64 519.5 317.027 519.5C280.68 519.5 248.701 513.54 231.024 504.8C221.689 500.233 216.327 494.671 216.327 488.911C216.327 487.719 216.526 486.726 216.922 485.536C222.284 470.241 265.187 458.323 317.027 458.323C332.122 458.323 346.423 459.316 359.333 461.103C360.127 461.302 360.921 461.302 361.717 461.502ZM343.841 467.461C339.271 466.864 334.703 466.468 329.739 466.269C325.568 466.069 321.396 465.87 317.027 465.87C286.438 465.87 260.42 471.631 249.497 479.972C245.92 482.556 243.936 485.536 243.936 488.712C243.936 492.09 246.318 495.466 250.687 498.246C262.207 505.993 287.631 511.554 317.027 511.554C357.346 511.554 390.12 501.425 390.12 488.712C390.12 478.979 370.853 470.836 343.841 467.461ZM591.918 418.798L596.882 415.42H608.999C608.999 415.42 608.999 417.207 609.196 419.791C609.196 420.187 609.196 420.386 609.196 420.782V420.981C609.196 421.18 609.196 421.578 609.196 421.775C609.395 424.954 609.395 428.927 609.594 432.501C609.594 432.9 609.594 433.099 609.594 433.495C609.594 433.694 609.594 433.893 609.594 434.092L610.389 433.495L611.78 432.501L621.71 424.954L621.511 421.775V419.791L620.916 409.065L620.518 403.7L612.176 409.065L607.21 412.241C607.21 412.241 603.04 410.852 597.081 409.065C591.719 407.474 585.164 405.49 579.006 403.7C577.617 405.49 576.425 407.277 575.232 409.065C574.239 410.454 573.445 411.845 572.452 413.037C575.829 414.031 581.192 415.42 582.583 415.818L581.192 416.612L591.918 418.798ZM500.75 482.952L496.777 485.536L493.799 486.131H494.395C496.182 485.733 497.573 485.336 498.566 484.739C499.56 484.343 500.155 483.746 500.75 482.952ZM454.869 519.5L483.073 505.597C477.908 502.02 470.958 496.658 468.376 491.692C466.39 487.719 467.779 485.733 469.765 484.938L470.361 482.556L458.245 479.576L453.478 486.925L451.691 489.705L452.485 492.09L454.075 497.452L441.761 507.979L454.869 519.5ZM498.168 509.767L499.757 508.972L493.401 509.567C493.996 510.364 495.189 511.357 498.168 509.767ZM721.616 572.335C722.211 566.574 724 551.875 724.595 546.513C723.801 546.513 723.204 546.314 722.41 546.314C720.423 545.916 718.437 545.321 716.849 544.726L716.65 547.108L714.068 571.142C716.453 571.737 718.835 572.135 721.616 572.335ZM821.521 613.846C820.727 626.36 817.747 678.399 816.754 699.453C814.967 701.043 812.385 702.433 808.612 703.227C804.44 704.023 799.078 703.824 793.716 703.625C783.982 703.227 774.648 702.831 772.86 708.591C771.668 712.166 769.881 719.912 768.093 727.46C760.942 729.048 755.381 730.041 752.204 730.041C744.853 729.842 629.853 730.835 498.763 732.028L432.822 634.305H394.091C411.57 659.331 442.754 706.803 459.437 732.426C456.458 732.426 453.478 732.426 450.5 732.426L383.763 634.305H291.008C303.918 655.36 331.923 698.46 354.566 733.22C230.825 734.213 121.982 735.007 105.1 734.609C98.3466 734.412 91.195 732.822 83.8465 730.24C81.8601 721.899 79.6767 712.761 78.2854 708.591C76.498 702.831 66.964 703.227 56.835 703.625C51.6699 703.824 46.3078 704.023 42.3349 703.426C40.3485 703.03 38.5612 702.433 37.1719 701.837C34.9864 678.002 31.8078 640.661 31.2126 621.792C33 622.387 34.9864 622.785 37.1719 623.38C78.8805 631.921 799.078 625.566 810.598 622.188C813.775 620.799 817.548 617.62 821.521 613.846ZM237.182 681.179C237.182 662.31 221.689 646.819 202.82 646.819H124.962C106.093 646.819 90.5999 662.31 90.5999 681.179V689.523C90.5999 708.392 106.093 723.885 124.962 723.885H202.82C221.689 723.885 237.182 708.392 237.182 689.523V681.179ZM756.971 681.179C756.971 662.31 741.478 646.819 722.609 646.819H644.751C625.882 646.819 610.389 662.31 610.389 681.179V689.523C610.389 708.392 625.882 723.885 644.751 723.885H722.609C741.478 723.885 756.971 708.392 756.971 689.523V681.179ZM544.248 444.022L550.406 440.049C551.994 437.866 554.775 436.076 558.549 434.886L558.947 434.687H516.243C518.825 435.481 521.406 436.275 523.791 437.069C530.94 439.056 537.694 441.44 544.248 444.022ZM156.94 412.44V43.5947C156.94 31.4792 166.87 21.5472 178.985 21.5472H678.715C690.83 21.5472 700.76 31.4792 700.76 43.5947V412.44C700.76 424.558 690.83 434.488 678.715 434.488H637.203C645.147 436.673 651.701 440.049 654.88 444.221C655.079 444.617 655.276 444.816 655.475 445.214L656.072 446.207L656.866 447.4H695.398C695.993 447.201 696.787 447.002 697.584 446.802C698.378 446.603 699.371 446.603 700.364 446.603C701.554 446.603 702.747 446.802 703.939 447.002C704.932 446.802 705.925 446.603 706.72 446.207C707.514 446.008 708.109 445.61 708.905 445.413C710.493 444.619 711.883 443.823 713.274 442.633C714.068 440.248 714.466 437.866 714.466 435.282V35.45C714.466 22.5404 703.939 12.0132 691.029 12.0132H164.288C151.379 12.0132 140.851 22.5404 140.851 35.45V423.961C146.612 422.768 152.569 421.578 158.528 420.585C157.535 418.001 156.94 415.221 156.94 412.44ZM572.651 409.065H347.416C334.108 408.467 320.801 408.27 307.294 408.27C293.789 408.27 280.282 408.667 267.174 409.065H235.791C217.915 409.065 203.415 394.565 203.415 376.689V94.8394C203.415 76.9637 217.915 62.4637 235.791 62.4637H634.224C652.099 62.4637 666.597 76.9637 666.597 94.8394V376.689C666.597 394.565 652.099 409.065 634.224 409.065H622.902L622.305 400.126L621.71 399.927C619.327 399.133 599.266 392.976 595.293 394.167C591.918 395.16 580.793 398.338 579.205 399.927C576.823 402.906 574.836 405.886 572.651 409.065ZM604.628 381.852C620.717 381.852 633.825 368.743 633.825 352.655V109.14C633.825 93.052 620.717 79.9433 604.628 79.9433H265.386C249.298 79.9433 236.189 93.052 236.189 109.14V352.655C236.189 368.743 249.298 381.852 265.386 381.852H604.628ZM679.31 533.801L690.432 533.205C690.631 530.821 690.83 528.438 690.83 526.054C680.898 528.239 665.407 531.418 659.05 530.821C649.12 529.828 605.622 527.445 612.773 530.821C619.923 534.199 654.88 530.622 657.461 535.389C658.654 537.375 658.255 542.142 657.66 546.909L669.776 546.71C673.154 546.71 676.529 546.314 679.31 545.717C679.111 540.355 678.715 534 679.31 533.801ZM461.026 195.344C461.026 193.953 461.026 192.564 461.026 191.172C461.026 189.783 461.225 188.392 461.225 187.003C461.822 180.446 457.849 180.05 452.883 179.851C451.494 179.851 450.5 179.851 449.507 180.05C448.514 180.249 447.917 180.645 447.322 181.242C446.528 182.036 446.13 183.229 445.733 185.016C445.733 185.611 445.534 186.206 445.534 186.803C445.335 190.179 445.93 192.365 446.924 193.557C447.521 194.351 448.315 194.747 449.109 195.145C449.903 195.344 450.697 195.543 451.492 195.543C452.288 195.543 453.082 195.543 454.075 195.344C454.869 195.344 455.863 195.145 456.657 195.145C457.055 195.145 457.451 195.145 457.849 195.145C459.238 194.946 460.231 194.946 461.026 195.344ZM475.526 198.919C472.546 192.564 466.191 196.138 461.225 195.74C461.026 197.727 460.63 199.912 460.63 201.899C460.63 203.885 459.238 209.048 463.806 210.041C464.403 210.24 464.799 210.24 465.397 210.439C469.17 211.234 471.752 211.632 474.333 209.048C475.725 207.659 476.519 205.871 476.718 204.084C476.718 203.885 476.718 203.686 476.718 203.686C476.718 201.899 476.32 200.31 475.526 198.919Z" fill="#90BFCB"/>
<mask id="mask1_37_2" style="mask-type:alpha" maskUnits="userSpaceOnUse" x="0" y="0" width="824" height="750">
<path d="M0.624268 0.437378H823.707V749.563H0.624268V0.437378Z" fill="white"/>
</mask>
<g mask="url(#mask1_37_2)">
<path d="M823.707 611.066L823.508 610.867C819.933 604.511 735.518 453.357 722.609 447.201C721.417 446.603 717.842 446.207 712.48 445.809C719.43 441.44 724.197 433.694 724.197 424.755V25.5201C724.197 11.8142 713.075 0.691895 699.371 0.691895H158.528C144.824 0.691895 133.7 11.8142 133.7 25.5201V424.558C133.7 424.755 133.7 425.153 133.7 425.352C118.605 428.728 104.107 432.502 90.799 436.673C32.6039 455.343 0.624268 480.171 0.624268 506.59C0.624268 527.047 19.6922 546.314 55.0476 562.602C41.9389 583.656 30.2194 604.312 29.4253 611.066C28.233 621.792 32.4049 670.256 35.1855 699.851C32.2058 697.467 31.0136 694.489 30.6175 692.304L29.6243 692.503L28.6311 692.7C28.6311 692.899 28.6311 692.899 28.6311 693.098H28.432L30.2194 724.679H30.0204C32.0068 733.22 35.1855 739.575 45.1155 744.939C50.6766 747.919 63.3893 749.308 73.3193 749.308C79.4776 749.308 84.6407 748.713 86.428 747.72C87.2242 747.123 87.4212 746.528 87.4212 746.13C87.4212 745.535 87.2242 744.342 86.8261 742.754C90.998 742.754 96.1611 742.953 102.715 742.953C121.385 743.152 148.994 743.349 184.546 743.349C206.198 743.349 231.223 743.349 259.031 743.349C307.891 743.349 366.086 743.349 432.822 743.152C568.678 742.754 705.925 742.356 764.518 742.159C764.12 744.145 763.921 745.535 763.724 746.13C763.724 746.528 763.724 747.123 764.518 747.72C766.107 748.713 771.272 749.308 777.428 749.308C787.358 749.308 800.071 747.919 805.632 744.939C815.564 739.774 818.94 733.021 820.926 724.679H820.528L822.118 694.091C822.118 693.892 822.315 693.693 822.315 693.297C822.315 693.098 822.315 692.899 822.514 692.899L821.521 692.503L820.528 692.104C820.528 692.304 820.331 692.503 820.331 692.7C820.331 692.899 820.132 693.098 820.132 693.496V693.892C819.933 694.686 819.535 695.679 818.741 696.871C819.933 671.448 823.508 612.059 823.508 611.265L823.707 611.066ZM728.767 579.683C710.294 579.683 695.199 572.136 695.199 562.801C695.199 558.828 697.98 555.054 702.747 552.074L700.165 560.217C699.57 561.011 699.172 562.004 699.371 562.998C699.371 566.97 704.335 570.545 711.883 572.532C714.665 573.328 718.041 573.923 721.417 574.321C722.41 574.321 723.403 574.518 724.396 574.518C725.787 574.518 727.177 574.717 728.568 574.717C729.561 574.717 730.751 574.717 731.745 574.717C740.285 574.321 747.833 572.532 752.6 569.95C756.175 567.964 758.36 565.581 758.36 562.998C758.36 562.403 758.161 561.807 757.964 561.21L755.978 553.068C759.948 555.848 762.333 559.224 762.333 562.998C762.333 572.136 747.238 579.683 728.767 579.683ZM759.154 596.367C759.154 598.751 755.58 600.737 751.211 600.737C746.84 600.737 743.265 598.751 743.265 596.367C743.265 593.984 746.84 591.998 751.211 591.998C755.58 591.998 759.154 593.984 759.154 596.367ZM508.496 486.529L506.908 487.522L506.709 487.719L501.148 491.493L506.114 492.486L509.092 493.083L511.277 493.479L519.223 495.07C519.42 496.26 519.619 497.651 519.619 498.843C520.017 501.823 520.216 504.801 520.413 507.185C520.612 509.767 520.811 511.753 520.612 512.547C519.223 513.144 512.071 514.534 505.915 515.328L502.736 517.115L496.58 520.493L496.381 520.692L495.587 521.088L494.594 521.685L487.046 525.855L485.655 519.898L456.856 530.821L452.288 532.608L430.835 517.513L441.96 507.78L454.274 497.253L452.684 491.891L451.89 489.506L453.677 486.726L458.444 479.377L470.56 482.357L475.924 483.746L494.793 478.384L497.969 476.398L499.56 475.404L512.865 466.665L526.967 457.529L528.558 456.536L539.481 449.386L541.071 448.393L542.062 447.796L542.46 447.597L542.66 447.4L543.255 447.002L544.646 446.207L544.845 446.008L545.639 445.61L546.433 445.015L546.632 444.816L549.413 443.029L550.603 442.235L551.994 441.241L559.542 436.474L562.124 434.687L562.721 434.289L564.309 433.296L569.472 429.92L569.671 429.721L569.87 429.126L570.268 427.934L572.253 422.572V413.235C572.253 413.235 572.253 413.235 572.253 413.038C573.049 411.646 574.042 410.257 575.035 409.065C576.225 407.277 577.617 405.49 578.809 403.701C579.404 402.906 579.999 402.112 580.596 401.318C581.391 400.524 588.938 398.139 595.692 396.153C598.074 395.359 611.78 399.133 620.319 401.714L620.518 403.701L620.916 409.065L621.511 419.791V421.775L621.71 424.954L611.78 432.502L610.389 433.495L609.594 434.092L609.196 434.488H608.997L608.006 435.085L605.026 434.488H604.827L600.655 433.495L596.486 432.502L595.094 432.105L594.101 432.502L588.739 434.289L588.341 434.488L582.581 436.474L577.219 440.049L577.02 440.248L570.465 444.619L568.877 445.61L567.486 446.603L566.295 447.4L566.096 447.597L564.705 448.393L563.316 449.386L560.734 451.173L559.741 451.769L558.945 452.364L556.562 453.954L556.164 454.153L554.576 455.343L541.865 463.884L540.275 464.877L528.954 472.425L508.496 486.529ZM510.483 491.296L508.297 490.898C508.098 490.303 507.901 489.904 507.702 489.309L509.291 488.316C509.689 489.309 510.085 490.303 510.483 491.296ZM495.189 523.472V531.02L469.964 537.574L456.062 541.149C456.062 541.149 456.062 541.149 456.062 540.95C455.464 538.568 455.068 536.183 454.67 533.602L483.867 522.479L485.06 528.04L485.259 528.835L495.189 523.472ZM570.268 421.775V422.372L567.884 428.728L558.947 434.488L558.549 434.687C554.775 435.879 551.994 437.667 550.406 439.852L544.248 443.823C537.893 441.241 530.94 438.859 523.791 436.673C521.209 435.879 518.626 435.083 516.243 434.289C499.757 429.325 482.08 425.153 463.012 421.578L570.268 421.775ZM451.89 419.791C419.514 414.228 384.161 410.653 347.416 409.065C334.108 408.468 320.801 408.271 307.294 408.271C293.789 408.271 280.282 408.667 267.173 409.065C239.565 410.257 212.949 412.44 187.725 416.015C182.958 412.44 179.978 406.879 179.978 400.524V61.2714C179.978 50.7443 188.718 42.0065 199.245 42.0065H658.853C669.378 42.0065 678.118 50.7443 678.118 61.2714V400.524C678.118 411.051 669.38 419.791 658.853 419.791H623.696L623.101 409.065L622.504 400.126L621.909 399.927C619.524 399.133 599.465 392.976 595.492 394.167C592.115 395.16 580.992 398.338 579.404 399.927C577.02 402.906 574.836 406.085 572.85 409.065C572.056 410.257 571.261 411.248 570.664 412.44L570.465 412.639V419.592L451.89 419.791ZM567.289 449.384L568.678 448.393L570.069 447.597L570.268 447.4L571.458 446.603L572.85 445.61L574.438 444.617L583.574 438.461L594.698 434.488H596.486L608.601 437.269L612.375 434.488L612.574 434.289H619.327C619.524 434.289 619.923 434.289 620.122 434.289C621.909 434.289 623.696 434.289 625.484 434.488C631.443 434.886 637.203 436.275 641.97 438.063C646.339 439.653 650.113 441.836 652.298 444.221C652.694 444.617 652.893 444.816 653.092 445.214C653.291 445.61 653.488 445.809 653.687 446.207L654.285 447.4V447.597L654.88 448.393L655.475 449.386L657.065 451.968L691.029 509.371C691.823 510.561 692.02 511.753 691.823 513.144C691.823 513.341 691.823 513.54 691.624 513.739V513.938C691.624 514.138 691.425 516.719 691.226 520.493C691.029 522.081 691.029 524.068 690.83 526.054C690.631 528.438 690.432 530.821 690.432 533.205C690.233 535.389 690.036 537.574 690.036 539.362H689.837L689.638 539.959C688.247 542.54 684.672 544.527 679.509 545.717C676.728 546.314 673.55 546.71 669.975 546.71L657.859 546.909L621.71 547.307C621.511 547.307 621.312 547.307 620.916 547.307C611.183 547.307 601.253 544.923 594.499 541.348C601.452 535.389 606.615 529.233 609.793 522.875C612.574 517.513 613.963 512.151 613.963 506.59C613.963 497.452 610.189 488.712 602.841 480.171C594.3 470.241 580.992 460.707 563.117 452.167L567.289 449.384ZM693.611 455.542C695.199 456.735 697.584 457.33 700.364 457.33C703.145 457.33 705.527 456.536 707.116 455.542C707.315 455.741 707.315 455.94 707.315 456.137C707.315 457.728 704.534 459.515 700.364 459.515C696.192 459.515 693.412 457.728 693.412 456.137C693.412 455.94 693.412 455.741 693.611 455.542ZM693.412 451.968C693.412 450.974 694.405 450.18 695.796 449.384C696.986 448.789 698.577 448.59 700.364 448.59C701.554 448.59 702.747 448.789 703.74 448.988C705.925 449.583 707.315 450.775 707.315 451.968C707.315 452.167 707.315 452.364 707.116 452.563C706.919 452.762 706.719 453.16 706.52 453.357C706.321 453.556 705.925 453.755 705.726 453.954C704.534 454.748 702.548 455.343 700.364 455.343C698.179 455.343 696.192 454.748 695 453.954C694.604 453.755 694.405 453.556 694.206 453.357C694.007 453.16 693.81 452.762 693.611 452.563C693.412 452.364 693.412 452.167 693.412 451.968ZM711.088 469.445C713.075 474.411 700.76 470.042 692.419 469.445C684.077 468.85 695.796 494.472 698.179 500.233C700.561 505.993 693.213 507.185 693.014 503.807C692.817 500.432 666.597 453.556 666.597 452.762C666.201 449.187 680.502 451.569 685.07 451.968C689.638 452.364 685.269 458.323 690.432 464.481C695.597 470.637 709.102 464.481 711.088 469.445ZM601.253 552.47C609.196 553.663 675.735 558.231 659.846 561.807C643.954 565.382 608.203 566.176 592.712 570.545C577.219 574.916 514.058 590.409 527.763 584.052C541.467 577.697 584.171 564.19 584.567 560.615C584.965 557.04 599.465 552.273 601.253 552.47ZM719.828 604.113C714.267 606.299 447.123 610.072 477.313 599.346C479.894 598.353 725.389 601.93 719.828 604.113ZM690.036 582.862C678.516 571.341 684.276 547.108 695.398 553.464C695.398 553.464 683.482 570.545 696.986 577.299C710.493 584.052 746.84 585.443 735.518 585.839C724.197 586.237 701.554 594.38 690.036 582.862ZM755.978 561.608C756.175 562.203 756.374 562.602 756.374 562.998C756.374 564.787 754.785 566.375 752.204 567.964C749.62 569.554 745.847 570.744 741.279 571.538C738.498 572.136 735.518 572.335 732.143 572.532C731.15 572.532 729.957 572.532 728.767 572.532C726.183 572.532 724 572.335 721.616 572.136C718.835 571.937 716.253 571.538 714.068 570.943C713.274 570.744 712.679 570.545 712.082 570.348C705.328 568.362 701.357 565.581 701.357 562.602C701.357 562.004 701.554 561.409 701.952 560.814L705.328 550.287L709.102 538.369C710.294 540.355 712.48 542.142 715.459 543.534C715.855 543.733 716.453 543.93 717.048 544.129C718.835 544.726 720.622 545.321 722.609 545.717C723.204 545.916 724 545.916 724.794 545.916C726.582 546.115 728.369 546.314 730.355 546.314C731.944 546.314 733.335 546.115 734.724 546.115C735.518 546.115 736.116 545.916 736.91 545.916C738.102 545.717 739.491 545.52 740.684 545.122C741.478 544.923 742.272 544.527 743.066 544.328C746.643 542.936 749.423 541.149 751.012 538.966L753.792 550.882L755.978 561.608ZM750.217 535.986C750.217 536.382 750.018 536.581 750.018 536.979C749.819 537.375 749.819 537.574 749.62 537.972C748.43 540.156 745.451 541.943 741.876 543.136C741.478 543.335 741.08 543.335 740.484 543.534C738.697 544.129 736.711 544.328 734.724 544.726C733.335 544.923 731.745 544.923 730.355 544.923C728.568 544.923 726.978 544.726 725.389 544.527C723.204 544.328 721.02 543.733 719.233 543.136C718.041 542.739 716.849 542.341 715.855 541.746C712.876 540.355 710.889 538.369 710.493 536.185C710.493 535.787 710.294 535.588 710.294 535.192C710.294 534.794 710.294 534.595 710.493 534.199C711.486 529.432 720.226 525.658 730.355 525.658C741.279 525.658 750.417 530.027 750.417 535.192C750.217 535.588 750.217 535.787 750.217 535.986ZM713.473 523.868C709.102 523.868 705.527 521.882 705.527 519.5C705.527 517.115 709.102 515.131 713.473 515.131C717.842 515.131 721.417 517.115 721.417 519.5C721.417 521.882 717.842 523.868 713.473 523.868ZM712.876 447.597H708.706C708.905 447.597 709.102 447.4 709.301 447.4C710.692 447.4 711.883 447.597 712.876 447.597ZM135.686 25.5201C135.686 13.0064 146.014 2.67831 158.528 2.67831H699.371C711.883 2.67831 722.211 13.0064 722.211 25.5201V424.558C722.211 431.906 718.636 438.461 713.274 442.633C711.883 443.626 710.493 444.617 708.905 445.413C708.308 445.809 707.514 446.008 706.719 446.207C705.726 446.603 704.932 446.803 703.939 447.002C702.946 446.803 701.753 446.603 700.364 446.603C699.371 446.603 698.577 446.803 697.584 446.803C696.787 447.002 695.993 447.201 695.398 447.4H656.866L656.072 446.207L655.475 445.214C655.276 444.816 655.079 444.617 654.88 444.221C651.9 440.049 645.346 436.474 637.203 434.488C631.642 433.099 625.484 432.105 619.327 432.302H615.355L624.094 425.748L623.895 421.775H658.853C670.57 421.775 680.104 412.241 680.104 400.524V61.2714C680.104 49.5541 670.57 40.0201 658.853 40.0201H199.046C187.329 40.0201 177.795 49.5541 177.795 61.2714V400.524C177.795 406.879 180.576 412.44 184.944 416.413C176.008 417.605 167.069 418.995 158.528 420.585C152.569 421.578 146.612 422.769 140.851 423.961C139.064 424.359 137.474 424.755 135.686 424.954C135.686 424.755 135.686 424.755 135.686 424.558V25.5201ZM33 541.149C30.4185 541.746 27.8369 542.54 25.4524 543.136C10.7554 531.814 2.61068 519.5 2.61068 506.59C2.61068 504.604 2.80974 502.617 3.20784 500.83L8.76899 500.233C9.36409 490.699 13.735 481.563 21.8777 473.022C43.7262 454.549 83.2514 438.66 133.899 427.535C134.297 427.535 134.496 427.338 134.892 427.338C135.29 427.338 135.487 427.139 135.885 427.139C137.474 426.741 139.261 426.345 140.851 426.146C146.809 424.954 152.967 423.762 159.322 422.572C168.261 420.981 177.596 419.592 187.13 418.201C187.526 418.201 187.924 418.002 188.32 418.002H188.519C189.116 418.002 189.711 417.805 190.11 417.805C221.888 413.633 256.447 411.051 292.597 410.454C297.364 410.454 302.33 410.257 307.097 410.257C342.649 410.257 377.009 412.241 408.79 415.818C419.118 417.008 429.446 418.4 439.179 419.791C441.363 420.187 443.349 420.386 445.534 420.782C445.93 420.782 446.329 420.981 446.727 420.981C448.315 421.18 449.903 421.578 451.492 421.775C472.15 425.352 491.415 429.522 509.092 434.488C520.811 437.667 531.537 441.241 541.467 445.015C541.666 445.015 541.865 445.214 542.062 445.214L540.872 446.008L539.481 446.803C538.687 446.603 538.092 446.207 537.295 446.008C536.501 445.61 535.508 445.413 534.714 445.015C529.551 443.029 523.99 441.241 518.229 439.255C512.668 437.468 506.908 435.879 500.949 434.289C482.08 429.126 461.623 424.954 439.774 421.578C437.987 421.379 436.396 420.981 434.609 420.782C434.213 420.782 433.616 420.585 433.22 420.585C430.835 420.187 428.453 419.988 426.068 419.592C419.713 418.798 413.159 418.002 406.405 417.207L403.03 419.592L401.638 420.585L401.441 420.782L400.448 421.578L397.269 423.762C420.111 426.345 441.562 429.92 461.026 434.289C475.526 437.667 489.032 441.241 501.347 445.413C502.34 445.809 503.134 446.008 504.128 446.406C504.922 446.603 505.716 447.002 506.311 447.201C506.51 447.201 506.51 447.201 506.709 447.4C507.503 447.597 508.297 447.995 509.092 448.194C509.888 448.59 510.879 448.789 511.675 449.187C516.639 451.173 521.605 453.16 525.974 455.343L524.187 456.536C518.825 453.954 512.865 451.569 506.709 449.386C505.716 448.988 504.922 448.789 503.928 448.393C503.134 448.194 502.34 447.796 501.743 447.597H501.544C501.347 447.597 501.347 447.597 501.148 447.4C500.354 447.201 499.757 447.002 498.962 446.603C497.969 446.207 496.976 446.008 495.983 445.61C482.874 441.44 468.177 437.468 452.288 434.289C434.609 430.714 415.344 427.735 394.885 425.551L382.968 434.289L380.188 436.275C400.645 438.859 419.317 442.434 436 446.803C436.596 447.002 437.193 447.201 437.788 447.201C437.987 447.201 437.987 447.201 438.186 447.4C438.582 447.597 438.98 447.597 439.376 447.796C439.973 447.995 440.767 448.194 441.363 448.393C441.761 448.59 442.157 448.59 442.555 448.789C443.349 448.988 443.944 449.187 444.74 449.386C448.315 450.377 451.691 451.569 455.068 452.563C473.143 458.721 487.442 465.87 497.175 474.015L495.587 475.008C483.867 465.275 464.799 456.735 440.767 449.981C439.973 449.782 439.179 449.583 438.383 449.386C437.788 449.187 437.193 448.988 436.596 448.789C436.199 448.789 435.801 448.59 435.405 448.393C435.206 448.393 434.808 448.194 434.609 448.194C434.412 448.194 434.014 447.995 433.815 447.995C433.021 447.796 432.028 447.597 431.233 447.4C431.034 447.4 430.835 447.4 430.835 447.201C414.946 443.228 397.269 440.248 378.201 437.866L368.468 445.015C373.038 445.61 377.606 446.406 381.975 447.201C383.763 447.597 385.55 447.796 387.337 448.194C388.928 448.59 390.516 448.789 392.104 449.187C393.297 449.386 394.489 449.782 395.681 449.981C399.455 450.775 403.03 451.769 406.405 452.762C433.22 460.309 450.697 471.235 453.082 483.35L449.507 489.309L451.096 494.671C440.17 512.945 394.29 527.246 336.491 530.226L334.504 561.011C381.38 559.027 423.288 551.875 454.274 541.547C454.274 541.943 454.471 542.142 454.471 542.54L454.67 543.335C423.288 553.862 381.38 561.011 334.506 562.998L333.314 582.663C459.437 579.683 560.336 547.703 569.076 507.78C569.275 507.384 569.275 506.787 569.275 506.391C569.275 505.794 569.472 505.398 569.472 504.801C569.472 504.006 569.671 503.013 569.671 502.219C569.671 498.445 568.877 494.871 567.289 491.296C564.309 484.144 558.151 477.391 549.61 471.036C549.214 470.637 548.816 470.438 548.42 470.042C548.022 469.843 547.823 469.445 547.427 469.248C545.838 468.255 544.248 467.063 542.66 466.07L544.248 465.076C545.44 465.87 546.632 466.665 547.823 467.461C548.022 467.658 548.42 467.857 548.619 468.056C549.015 468.255 549.214 468.454 549.61 468.651C560.336 476.398 567.488 484.542 570.465 493.28C571.458 496.26 572.056 499.239 572.056 502.219C572.056 504.006 571.857 505.794 571.458 507.384C571.458 507.78 571.261 508.377 571.062 508.773C570.863 509.171 570.863 509.568 570.664 510.165C558.748 550.088 458.245 581.67 333.314 584.649L332.916 591.6C403.229 590.011 468.573 580.477 518.825 564.588C547.626 555.45 569.671 544.726 584.171 533.205C584.37 533.006 584.766 532.807 584.965 532.608C585.164 532.409 585.56 532.212 585.759 532.013C587.746 530.425 589.533 528.635 591.122 527.047C593.902 524.068 596.287 521.287 598.074 518.307C601.45 512.945 603.04 507.583 603.04 502.219C603.04 496.063 600.655 489.705 596.287 483.549C589.137 473.617 576.424 464.083 558.947 455.343L561.727 453.556C579.404 461.898 592.911 471.235 601.45 481.165C605.422 485.733 608.402 490.5 610.189 495.466C610.588 497.651 610.787 499.837 610.787 502.02C610.787 508.574 608.8 515.131 605.026 521.287C601.649 527.047 596.486 532.807 590.128 538.169C589.931 538.369 589.533 538.568 589.334 538.767C589.137 538.966 588.739 539.163 588.54 539.362C587.151 540.355 585.958 541.547 584.567 542.54C540.673 574.518 446.13 596.765 332.122 599.346L331.923 602.525C323.78 602.724 315.635 602.923 307.493 602.923C259.427 602.923 213.743 599.346 173.424 592.991C174.417 591.998 175.61 591.004 176.603 589.812C134.098 583.059 97.3533 573.328 69.3485 561.21H69.1495C66.3689 560.02 63.5883 558.629 60.8078 557.436C60.4097 557.237 60.2106 557.237 59.8146 557.04C59.4165 556.841 59.2174 556.642 58.8214 556.642C48.8893 551.875 40.1515 546.513 33 541.149ZM79.0795 747.521C78.6835 746.13 78.4844 744.541 78.0863 742.953C78.0863 742.555 77.8893 742.356 77.8893 741.96C77.8893 741.562 77.6903 741.363 77.6903 740.967C76.498 736.001 75.3057 730.638 74.1155 726.068C73.1223 722.295 72.3261 719.317 71.731 717.331C70.1427 712.365 60.6087 712.761 51.0747 713.159C46.5068 713.358 42.1359 713.557 38.3621 712.96C37.966 712.96 37.767 712.96 37.3689 712.761C37.1719 712.761 36.7738 712.761 36.5747 712.564H36.3777C34.5883 712.166 33 711.571 31.6107 710.973L30.8145 698.46C31.8077 699.851 33.199 701.439 35.3845 702.632C35.7806 702.831 35.9796 703.03 36.3777 703.227C36.7738 703.426 36.9728 703.625 37.3689 703.625C37.5679 703.625 37.767 703.824 37.767 703.824C38.9592 704.22 40.3485 704.817 41.9389 705.016C46.1087 705.81 51.4728 705.611 56.8349 705.412C65.7718 705.016 75.1067 704.817 76.2989 708.987C77.4912 712.761 79.4776 721.104 81.464 729.247C82.4572 733.618 83.4505 737.987 84.2446 741.166C84.2446 741.562 84.4437 741.761 84.4437 742.159C84.4437 742.555 84.6407 742.754 84.6407 743.152C85.0388 744.74 85.2378 745.933 85.2378 746.528C84.8397 746.926 82.4572 747.322 79.0795 747.521ZM820.132 698.659L819.734 708.591C819.338 708.79 818.94 708.987 818.542 709.186C818.146 709.385 817.747 709.385 817.351 709.584C816.953 709.781 816.555 709.781 816.159 709.98C815.761 709.98 815.365 710.179 814.967 710.179C803.646 712.365 782.394 707.001 779.811 714.747C779.016 716.933 778.023 720.706 777.03 725.274C775.84 730.24 774.448 735.802 773.455 740.768C773.455 741.166 773.256 741.363 773.256 741.761C773.256 742.159 773.059 742.356 773.059 742.754C772.661 744.541 772.263 746.13 772.066 747.521C769.086 747.322 766.901 746.926 766.107 746.528C766.306 745.734 766.505 744.541 766.901 742.555C766.901 742.159 767.1 741.96 767.1 741.562C767.1 741.166 767.299 740.967 767.299 740.569C768.093 736.795 769.285 731.829 770.476 726.666C772.263 719.514 774.052 712.166 775.044 708.987C776.236 704.817 785.175 705.213 793.913 705.412C799.277 705.611 804.838 705.81 809.207 705.014C812.186 704.419 814.768 703.426 816.953 701.837C817.351 701.638 817.747 701.439 817.947 701.043C818.345 700.645 818.741 700.446 818.94 700.05C819.338 699.652 819.734 699.057 820.132 698.659ZM821.521 613.846C820.727 626.36 817.747 678.399 816.754 699.453C814.967 701.043 812.385 702.433 808.612 703.227C804.44 704.023 799.078 703.824 793.716 703.625C783.982 703.227 774.648 702.831 772.86 708.591C771.668 712.166 769.881 719.912 768.093 727.46C766.901 732.426 765.908 737.193 765.114 740.768C717.247 740.967 615.95 741.363 505.318 741.562C492.209 741.562 479.1 741.562 465.793 741.761C462.813 741.761 460.032 741.761 457.055 741.761C424.679 741.761 392.104 741.96 360.326 741.96C236.784 742.159 125.159 742.159 86.6271 741.363C86.032 738.385 85.0388 734.412 84.0456 730.24C82.0591 721.899 79.8737 712.761 78.4844 708.591C76.6971 702.831 67.1631 703.227 57.034 703.625C51.8689 703.824 46.5068 704.023 42.534 703.426C40.5475 703.03 38.7602 702.433 37.3689 701.837C35.1855 678.003 32.0068 640.661 31.4117 621.792C31.2126 617.421 31.2126 613.846 31.4117 611.86C32.0068 605.305 43.7262 585.045 56.8349 563.991C59.6155 565.382 62.5951 566.574 65.7718 567.765L44.1223 609.278H44.3213L235.791 609.873C166.87 604.312 107.681 588.622 65.3757 568.957L65.9708 567.765C73.7174 570.943 81.8601 573.923 90.799 576.703C148.598 595.176 225.463 605.305 307.294 605.305C389.127 605.305 465.992 595.176 523.791 576.703C538.886 571.937 552.393 566.574 563.911 561.013C524.585 585.839 445.534 604.312 349.998 610.072L802.453 611.265L713.473 447.597C717.842 447.995 720.821 448.393 721.815 448.789C731.745 453.556 791.53 557.04 821.72 611.464C821.72 611.86 821.72 612.654 821.521 613.846ZM151.775 604.113C160.514 607.69 82.2582 604.511 76.2989 604.511C70.3417 604.511 76.0999 597.36 76.2989 592.991C76.498 588.622 64.9776 589.018 64.1834 588.819C55.8417 588.025 70.3417 585.839 72.5252 586.237L81.464 588.622C83.8465 591.799 80.0727 597.758 78.4844 600.339C76.8961 602.923 143.035 600.538 151.775 604.113ZM69.7446 596.566C69.5455 596.765 69.3485 597.163 69.1495 597.36C68.9504 597.559 68.5523 597.758 68.3553 597.957C67.1631 598.751 65.3757 599.147 63.1902 599.147C61.0048 599.147 59.2174 598.751 58.0272 597.957C57.6291 597.758 57.43 597.559 57.231 597.36C57.034 597.163 56.8349 596.765 56.6359 596.566C56.4368 596.367 56.4368 595.971 56.4368 595.771C56.4368 594.183 59.2174 592.396 63.3893 592.396C67.5591 592.396 70.3417 594.183 70.3417 595.771C69.9436 595.971 69.7446 596.367 69.7446 596.566ZM69.9436 600.14C69.9436 601.731 67.1631 603.518 62.9912 603.518C58.8214 603.518 56.0408 601.731 56.0408 600.14C56.0408 599.943 56.2378 599.545 56.2378 599.346C57.8281 600.538 60.2106 601.134 62.9912 601.134C65.7718 601.134 67.9572 600.339 69.7446 599.346C69.7446 599.545 69.9436 599.943 69.9436 600.14ZM778.62 601.532C780.209 602.724 782.593 603.319 785.374 603.319C788.154 603.319 790.338 602.525 792.125 601.532C792.324 601.731 792.324 602.127 792.324 602.326C792.324 603.914 789.544 605.704 785.374 605.704C781.202 605.704 778.421 603.914 778.421 602.326C778.421 602.127 778.62 601.731 778.62 601.532ZM778.421 597.957C778.421 596.367 781.202 594.579 785.374 594.579C789.544 594.579 792.324 596.367 792.324 597.957C792.324 598.156 792.125 598.552 792.125 598.751C791.928 598.95 791.729 599.346 791.53 599.545C791.331 599.744 790.935 599.943 790.736 600.14C789.544 600.937 787.756 601.333 785.571 601.333C783.387 601.333 781.6 600.937 780.408 600.14C780.01 599.943 779.811 599.744 779.614 599.545C779.415 599.346 779.215 598.95 779.016 598.751C778.62 598.552 778.421 598.156 778.421 597.957ZM58.0272 494.871L16.9117 499.239C19.2962 477.391 49.4864 455.741 100.928 439.454C111.455 436.076 122.578 433.099 134.496 430.316C134.892 430.316 135.091 430.119 135.487 430.119C135.885 430.119 136.084 429.92 136.48 429.92C137.872 429.522 139.46 429.325 141.05 428.927C147.605 427.535 154.159 426.146 160.913 424.954C170.643 423.167 180.576 421.578 190.904 420.187C191.499 420.187 192.094 419.988 192.492 419.988C192.691 419.988 192.691 419.988 192.89 419.988C193.684 419.789 194.677 419.789 195.472 419.592C226.058 415.619 258.832 413.235 292.796 412.639C292.796 415.221 292.796 417.605 292.796 419.988C285.447 420.187 278.097 420.585 270.748 420.981C269.556 420.981 268.366 421.18 267.373 421.18C263.4 421.379 259.427 421.775 255.653 421.974C225.463 424.16 197.458 428.332 172.431 433.495C161.904 435.68 151.974 438.262 142.838 440.843C142.639 440.843 142.241 441.042 142.044 441.042H141.845C141.446 441.241 141.247 441.241 140.851 441.44C94.3737 454.947 63.7853 473.816 58.0272 494.871ZM139.261 535.192C157.734 543.733 182.562 550.882 211.361 555.848C205.601 561.409 199.641 567.369 193.485 573.328C156.94 567.17 125.756 558.231 102.715 547.307C92.5863 542.54 84.0456 537.375 77.0931 532.013C76.8961 531.814 76.498 531.615 76.2989 531.416C76.0999 531.219 75.7038 531.02 75.5048 530.821C75.1067 530.622 74.9097 530.226 74.5116 530.027C75.1067 529.828 75.7038 529.629 76.2989 529.629C76.6971 529.432 77.2922 529.432 77.6903 529.233C78.0863 529.034 78.6835 529.034 79.0795 528.835C90.799 525.656 102.715 522.479 114.236 519.5C120.392 525.061 128.933 530.226 139.261 535.192ZM204.408 513.739C215.135 518.108 228.243 521.882 243.139 524.665C237.379 530.425 226.257 541.547 212.949 554.26C184.546 549.493 160.116 542.739 141.645 534.396C131.118 529.629 122.578 524.466 116.222 518.905C142.44 511.952 166.671 505.398 182.759 501.226C187.924 505.597 195.273 509.966 204.408 513.739C204.408 513.54 204.408 513.54 204.408 513.739ZM63.1902 549.889C55.6427 546.314 48.8893 542.341 42.9321 538.568C52.464 535.986 62.3961 533.402 72.5252 530.622C73.1223 531.219 73.9165 531.814 74.5116 532.409C74.7106 532.608 75.1067 532.807 75.3057 533.006C75.5048 533.205 75.9029 533.402 76.0999 533.602C82.6542 538.767 90.799 543.534 100.333 548.102C123.571 559.224 154.953 568.559 191.698 574.916C188.917 577.697 186.137 580.278 183.356 583.059C152.967 578.491 125.159 572.335 100.729 564.588C91.9912 561.807 84.0456 559.027 76.6971 556.047C72.5252 554.457 68.5523 552.669 64.9776 550.882C64.5815 550.683 64.3825 550.683 63.9844 550.484C63.7853 550.088 63.3893 550.088 63.1902 549.889ZM183.555 447.4C212.155 440.447 246.716 435.879 284.255 434.488C287.036 434.488 289.816 434.289 292.597 434.289V434.488C292.398 439.255 292.398 442.235 292.199 442.434C275.913 443.228 260.42 445.015 246.517 447.597C244.73 447.995 242.942 448.194 241.153 448.59C239.565 448.988 237.976 449.187 236.388 449.583C202.621 456.934 179.582 468.85 175.809 482.556L106.887 489.904C113.442 473.816 138.865 459.714 175.809 449.583C176.999 449.187 178.39 448.988 179.582 448.59C180.773 448.194 182.164 447.796 183.555 447.4ZM292.597 432.302C278.891 432.701 265.386 433.296 252.673 434.488C224.271 437.069 198.252 441.44 176.404 447.4C175.211 447.796 174.021 447.995 172.829 448.393C171.637 448.789 170.444 448.988 169.451 449.386C134.496 459.714 110.86 473.816 104.901 489.904L60.2106 494.671C66.1699 474.212 96.5592 455.94 141.845 442.83C142.241 442.633 142.639 442.633 143.035 442.434C143.433 442.235 143.831 442.235 144.227 442.036C154.356 439.255 165.281 436.474 176.802 434.092C210.963 427.139 250.49 422.769 292.993 421.578C292.597 425.748 292.597 429.325 292.597 432.302ZM214.737 485.932C214.54 486.925 214.341 487.918 214.341 488.911C214.341 495.07 219.504 500.83 228.442 505.597C246.119 515.131 278.891 521.486 317.027 521.486C374.627 521.486 419.713 507.185 419.713 488.911C419.713 476.199 398.263 465.671 365.887 460.11C365.688 460.11 365.688 460.11 365.491 460.11C351.19 457.728 334.703 456.336 317.027 456.336C262.606 456.336 219.307 469.049 214.737 485.932ZM317.027 458.323C332.122 458.323 346.423 459.316 359.333 461.103C360.127 461.303 360.923 461.303 361.914 461.502C395.084 466.468 417.926 476.995 417.926 488.911C417.926 505.794 372.839 519.5 317.226 519.5C280.877 519.5 248.9 513.54 231.223 504.801C221.888 500.233 216.526 494.671 216.526 488.911C216.526 487.719 216.723 486.726 217.121 485.536C222.284 470.241 265.187 458.323 317.027 458.323ZM635.217 471.631C642.764 471.631 648.721 468.056 648.721 463.687C648.721 462.495 648.325 461.303 647.332 460.11C648.126 459.117 648.721 457.927 648.721 456.536C648.721 453.16 645.545 450.576 640.778 449.187C639.19 448.789 637.203 448.59 635.217 448.59C633.23 448.59 631.443 448.789 629.656 449.187C624.889 450.377 621.71 453.16 621.71 456.536C621.71 457.728 622.108 458.92 623.101 460.11C622.305 461.103 621.71 462.296 621.71 463.687C621.71 468.056 627.669 471.631 635.217 471.631ZM635.217 450.775C641.373 450.775 646.737 453.556 646.737 456.735C646.737 457.529 646.538 458.124 645.941 458.92C645.744 459.117 645.545 459.515 645.346 459.714C645.147 459.911 644.751 460.11 644.552 460.309C642.366 461.898 638.99 462.694 635.217 462.694C631.443 462.694 628.065 461.701 625.882 460.309C625.683 460.11 625.285 459.911 625.086 459.714C624.889 459.515 624.689 459.316 624.49 458.92C624.094 458.323 623.696 457.529 623.696 456.735C623.696 453.556 629.058 450.775 635.217 450.775ZM624.49 461.502C626.875 463.289 630.846 464.678 635.217 464.678C639.586 464.678 643.558 463.488 645.941 461.502C646.339 462.097 646.737 462.891 646.737 463.687C646.737 466.864 641.373 469.644 635.217 469.644C629.058 469.644 623.696 466.864 623.696 463.687C623.696 462.891 623.895 462.296 624.49 461.502ZM631.642 481.959C631.642 483.151 632.038 484.343 632.832 485.337C632.038 486.33 631.642 487.522 631.642 488.712C631.642 493.083 637.599 496.658 645.147 496.658C652.694 496.658 658.654 493.083 658.654 488.712C658.654 487.522 658.255 486.33 657.461 485.337C658.255 484.343 658.654 483.151 658.654 481.959C658.654 477.59 652.694 474.015 645.147 474.015C637.599 474.015 631.642 477.59 631.642 481.959ZM645.147 494.671C638.99 494.671 633.626 491.891 633.626 488.712C633.626 488.117 633.825 487.323 634.223 486.726C636.606 488.712 640.579 489.904 645.147 489.904C649.715 489.904 653.488 488.712 656.072 486.726C656.468 487.323 656.667 487.918 656.667 488.712C656.667 491.891 651.305 494.671 645.147 494.671ZM656.667 481.959C656.667 482.556 656.468 483.35 656.072 483.945C655.873 484.144 655.674 484.542 655.475 484.739C655.276 484.938 655.079 485.137 654.681 485.337C652.495 486.925 649.12 487.918 645.346 487.918C641.572 487.918 637.997 486.925 636.011 485.337C635.812 485.137 635.416 484.938 635.217 484.739C635.018 484.542 634.819 484.144 634.62 483.945C634.223 483.35 634.024 482.755 634.024 481.959C634.024 478.782 639.387 476.002 645.545 476.002C651.305 476.002 656.667 478.782 656.667 481.959ZM202.82 646.817H124.962C106.093 646.817 90.5999 662.31 90.5999 681.179V689.523C90.5999 708.392 106.093 723.885 124.962 723.885H202.82C221.689 723.885 237.182 708.392 237.182 689.523V681.179C237.182 662.31 221.689 646.817 202.82 646.817ZM234.997 692.899C233.209 709.186 219.504 721.7 202.82 721.7H124.962C107.086 721.7 92.5863 707.2 92.5863 689.324V680.982C92.5863 680.584 92.5863 680.385 92.5863 679.989C97.3533 667.475 109.469 658.536 123.77 658.536H201.628C220.101 658.536 234.997 673.435 234.997 691.905V692.899ZM202.82 653.373H124.962C109.469 653.373 96.5592 663.901 92.7854 678.202C94.3737 661.715 108.08 648.803 124.962 648.803H202.82C219.703 648.803 233.606 661.715 234.997 678.202C231.223 663.901 218.313 653.373 202.82 653.373ZM204.807 672.441H120.989C118.605 672.441 116.421 674.229 116.023 676.611C115.428 677.604 115.03 678.797 115.03 679.989V682.172C115.03 685.55 117.611 688.132 120.989 688.132H204.807C208.182 688.132 210.766 685.55 210.766 682.172V679.989C210.766 678.797 210.368 677.604 209.773 676.611C209.375 674.229 207.189 672.441 204.807 672.441ZM204.807 686.145H120.989C119.003 686.145 117.215 684.557 117.016 682.57C118.01 683.763 119.401 684.557 120.989 684.557H204.807C206.395 684.557 207.786 683.763 208.779 682.57C208.58 684.557 206.793 686.145 204.807 686.145ZM204.807 692.7H120.989C118.605 692.7 116.421 694.489 116.023 696.871C115.428 697.865 115.03 699.057 115.03 700.247V702.433C115.03 705.81 117.611 708.392 120.989 708.392H204.807C208.182 708.392 210.766 705.81 210.766 702.433V700.247C210.766 699.057 210.368 697.865 209.773 696.871C209.375 694.489 207.189 692.7 204.807 692.7ZM204.807 706.405H120.989C119.003 706.405 117.215 704.817 117.016 702.831C118.01 704.023 119.401 704.817 120.989 704.817H204.807C206.395 704.817 207.786 704.023 208.779 702.831C208.58 704.817 206.793 706.405 204.807 706.405ZM722.609 646.817H644.751C625.882 646.817 610.389 662.31 610.389 681.179V689.523C610.389 708.392 625.882 723.885 644.751 723.885H722.609C741.478 723.885 756.971 708.392 756.971 689.523V681.179C756.971 662.31 741.478 646.817 722.609 646.817ZM754.586 694.29C752.204 709.781 738.896 721.899 722.609 721.899H644.751C626.875 721.899 612.375 707.399 612.375 689.523V681.179C612.375 680.584 612.375 680.188 612.375 679.591C617.341 667.475 629.257 658.736 643.359 658.736H721.22C739.69 658.736 754.586 673.632 754.586 692.104V694.29ZM722.609 653.373H644.751C629.257 653.373 616.348 663.901 612.574 678.202C614.162 661.715 627.868 648.803 644.751 648.803H722.609C739.491 648.803 753.394 661.715 754.785 678.202C751.012 663.901 738.102 653.373 722.609 653.373ZM724.396 672.441H640.579C638.196 672.441 636.011 674.229 635.613 676.611C635.018 677.604 634.62 678.797 634.62 679.989V682.172C634.62 685.55 637.203 688.132 640.579 688.132H724.396C727.774 688.132 730.355 685.55 730.355 682.172V679.989C730.355 678.797 729.957 677.604 729.362 676.611C728.964 674.229 726.781 672.441 724.396 672.441ZM724.396 686.145H640.579C638.592 686.145 636.805 684.557 636.606 682.57C637.599 683.763 638.99 684.557 640.579 684.557H724.396C725.984 684.557 727.376 683.763 728.369 682.57C728.17 684.557 726.383 686.145 724.396 686.145ZM724.396 692.7H640.579C638.196 692.7 636.011 694.489 635.613 696.871C635.018 697.865 634.62 699.057 634.62 700.247V702.433C634.62 705.81 637.203 708.392 640.579 708.392H724.396C727.774 708.392 730.355 705.81 730.355 702.433V700.247C730.355 699.057 729.957 697.865 729.362 696.871C728.964 694.489 726.781 692.7 724.396 692.7ZM724.396 706.405H640.579C638.592 706.405 636.805 704.817 636.606 702.831C637.599 704.023 638.99 704.817 640.579 704.817H724.396C725.984 704.817 727.376 704.023 728.369 702.831C728.17 704.817 726.383 706.405 724.396 706.405Z" fill="#483F2B"/>
</g>
<path d="M283.022 149.835H586.357V314.64H283.022V149.835Z" fill="#CEE2DA"/>
<mask id="mask2_37_2" style="mask-type:alpha" maskUnits="userSpaceOnUse" x="281" y="148" width="307" height="168">
<path d="M281.901 148.721H587.559V315.752H281.901V148.721Z" fill="white"/>
</mask>
<g mask="url(#mask2_37_2)">
<path d="M586.357 315.752H283.022C282.398 315.752 281.91 315.264 281.91 314.64V149.835C281.91 149.211 282.398 148.721 283.022 148.721H586.357C586.981 148.721 587.471 149.211 587.471 149.835V314.64C587.471 315.264 586.981 315.752 586.357 315.752ZM284.136 313.526H585.245V150.947H284.136V313.526Z" fill="#CEE2DA"/>
</g>
</svg>
